<?xml version="1.0" encoding="UTF-8"?>
<svg id="Capa_2" xmlns="http://www.w3.org/2000/svg" viewBox="0 0 744.1 326.8">
  <defs>
    <style>
      .cls-1 {
        fill: #fff;
      }
    </style>
  </defs>
  <g id="Capa_1-2" data-name="Capa_1">
    <g>
      <path class="cls-1" d="M430.73,219.15c4.04,5.19,6.07,11.12,6.07,17.79,0,9.62-3.36,17.25-10.08,22.88-6.72,5.63-16.1,8.44-28.12,8.44h-53.62v-115.11h51.82c11.7,0,20.85,2.68,27.47,8.04,6.61,5.36,9.92,12.63,9.92,21.81,0,6.78-1.78,12.41-5.33,16.89-3.55,4.48-8.28,7.6-14.18,9.35,6.67,1.42,12.02,4.73,16.07,9.92ZM373.01,199.72h18.37c4.59,0,8.12-1.01,10.58-3.03,2.46-2.02,3.69-5,3.69-8.94s-1.23-6.94-3.69-9.02c-2.46-2.08-5.99-3.12-10.58-3.12h-18.37v24.1ZM404.57,242.44c2.57-2.13,3.85-5.22,3.85-9.26s-1.34-7.21-4.02-9.51c-2.68-2.3-6.37-3.44-11.07-3.44h-20.33v25.42h20.66c4.7,0,8.33-1.07,10.9-3.2Z"/>
      <path class="cls-1" d="M464.31,263.83c-7.16-3.83-12.79-9.29-16.89-16.4-4.1-7.1-6.15-15.41-6.15-24.92s2.08-17.68,6.23-24.84c4.15-7.16,9.84-12.65,17.05-16.48,7.21-3.83,15.3-5.74,24.27-5.74s17.05,1.91,24.27,5.74c7.21,3.83,12.9,9.32,17.05,16.48,4.15,7.16,6.23,15.44,6.23,24.84s-2.11,17.68-6.31,24.84c-4.21,7.16-9.95,12.65-17.22,16.48-7.27,3.83-15.39,5.74-24.35,5.74s-17.03-1.91-24.19-5.74ZM502.19,239.4c3.77-3.94,5.66-9.56,5.66-16.89s-1.83-12.95-5.49-16.89c-3.66-3.94-8.17-5.9-13.53-5.9s-10,1.94-13.61,5.82c-3.61,3.88-5.41,9.54-5.41,16.97s1.78,12.95,5.33,16.89c3.55,3.93,8.01,5.9,13.36,5.9s9.92-1.97,13.69-5.9Z"/>
      <path class="cls-1" d="M546.19,197.59c3.55-7.1,8.39-12.57,14.51-16.4,6.12-3.83,12.96-5.74,20.5-5.74,6.45,0,12.11,1.31,16.97,3.94,4.86,2.62,8.61,6.07,11.23,10.33v-12.95h28.04v91.5h-28.04v-12.95c-2.73,4.26-6.53,7.71-11.4,10.33-4.87,2.62-10.52,3.94-16.97,3.94-7.44,0-14.21-1.94-20.33-5.82-6.12-3.88-10.96-9.4-14.51-16.56-3.55-7.16-5.33-15.44-5.33-24.84s1.78-17.65,5.33-24.76ZM603.58,205.95c-3.88-4.04-8.61-6.07-14.18-6.07s-10.31,2-14.18,5.99c-3.88,3.99-5.82,9.48-5.82,16.48s1.94,12.54,5.82,16.64c3.88,4.1,8.61,6.15,14.18,6.15s10.3-2.02,14.18-6.07c3.88-4.04,5.82-9.56,5.82-16.56s-1.94-12.52-5.82-16.56Z"/>
      <path class="cls-1" d="M699.64,244.49v23.78h-14.27c-10.17,0-18.09-2.49-23.78-7.46-5.69-4.97-8.53-13.09-8.53-24.35v-36.4h-11.15v-23.29h11.15v-22.3h28.04v22.3h18.37v23.29h-18.37v36.73c0,2.73.66,4.7,1.97,5.9,1.31,1.2,3.5,1.8,6.56,1.8h10Z"/>
    </g>
    <g>
      <path class="cls-1" d="M326.8,153.4H0c5.24,62,44.98,114.17,99.94,137.26v36.14c26.16-2.21,50.57-10.57,71.78-23.61,82.05-4.1,148.2-68.5,155.07-149.79Z"/>
      <path class="cls-1" d="M99.94,0v125.4h145.57C229.41,57.55,171.16,6.02,99.94,0Z"/>
    </g>
    <g>
      <path class="cls-1" d="M335.38,57.34c-2.08-3.83-5.06-6.75-8.94-8.77-3.88-2.02-8.44-3.03-13.69-3.03-9.07,0-16.34,2.98-21.81,8.94-5.47,5.96-8.2,13.91-8.2,23.86,0,10.6,2.87,18.89,8.61,24.84,5.74,5.96,13.64,8.94,23.69,8.94,6.89,0,12.71-1.75,17.46-5.25,4.76-3.5,8.22-8.53,10.41-15.09h-35.58v-20.66h61v26.07c-2.08,7-5.6,13.5-10.58,19.51-4.98,6.01-11.29,10.88-18.94,14.59-7.65,3.72-16.29,5.58-25.91,5.58-11.37,0-21.51-2.49-30.42-7.46-8.91-4.97-15.85-11.89-20.83-20.74-4.98-8.86-7.46-18.96-7.46-30.34s2.49-21.51,7.46-30.42c4.97-8.91,11.89-15.85,20.74-20.82,8.85-4.97,18.96-7.46,30.34-7.46,13.77,0,25.39,3.34,34.85,10,9.45,6.67,15.71,15.91,18.78,27.71h-30.99Z"/>
      <path class="cls-1" d="M463.97,97.02h-63.46c.44,5.69,2.27,10.03,5.49,13.04,3.22,3.01,7.19,4.51,11.89,4.51,7,0,11.86-2.95,14.59-8.86h29.84c-1.53,6.01-4.29,11.42-8.28,16.23-3.99,4.81-8.99,8.58-15,11.31-6.01,2.73-12.74,4.1-20.17,4.1-8.96,0-16.95-1.91-23.94-5.74-7-3.83-12.46-9.29-16.4-16.4-3.94-7.1-5.9-15.41-5.9-24.92s1.94-17.82,5.82-24.92c3.88-7.1,9.32-12.57,16.32-16.4,7-3.83,15.03-5.74,24.1-5.74s16.73,1.86,23.61,5.58c6.89,3.72,12.27,9.02,16.15,15.91,3.88,6.89,5.82,14.92,5.82,24.1,0,2.62-.16,5.36-.49,8.2ZM435.76,81.45c0-4.81-1.64-8.63-4.92-11.48-3.28-2.84-7.38-4.26-12.3-4.26s-8.66,1.37-11.89,4.1c-3.22,2.73-5.22,6.62-5.98,11.64h35.09Z"/>
      <path class="cls-1" d="M523.47,112.27v23.78h-14.27c-10.17,0-18.09-2.49-23.78-7.46-5.69-4.97-8.53-13.09-8.53-24.35v-36.4h-11.15v-23.29h11.15v-22.3h28.04v22.3h18.37v23.29h-18.37v36.73c0,2.73.66,4.7,1.97,5.9,1.31,1.2,3.5,1.8,6.56,1.8h10Z"/>
      <path class="cls-1" d="M576.83,131.62c-7.16-3.83-12.79-9.29-16.89-16.4-4.1-7.1-6.15-15.41-6.15-24.92s2.08-17.68,6.23-24.84c4.15-7.16,9.84-12.65,17.05-16.48,7.21-3.83,15.3-5.74,24.27-5.74s17.05,1.91,24.27,5.74c7.21,3.83,12.9,9.32,17.05,16.48,4.15,7.16,6.23,15.44,6.23,24.84s-2.11,17.68-6.31,24.84c-4.21,7.16-9.95,12.65-17.22,16.48-7.27,3.83-15.39,5.74-24.35,5.74s-17.03-1.91-24.19-5.74ZM614.71,107.19c3.77-3.94,5.66-9.56,5.66-16.89s-1.83-12.95-5.49-16.89c-3.66-3.94-8.17-5.9-13.53-5.9s-10,1.94-13.61,5.82c-3.61,3.88-5.41,9.54-5.41,16.97s1.78,12.95,5.33,16.89c3.55,3.93,8.01,5.9,13.36,5.9s9.92-1.97,13.69-5.9Z"/>
      <path class="cls-1" d="M734.51,53.98c6.39,6.94,9.59,16.48,9.59,28.61v53.46h-27.88v-49.68c0-6.12-1.59-10.88-4.76-14.27-3.17-3.39-7.44-5.08-12.79-5.08s-9.62,1.7-12.79,5.08c-3.17,3.39-4.76,8.15-4.76,14.27v49.68h-28.04V44.55h28.04v12.13c2.84-4.04,6.67-7.24,11.48-9.59,4.81-2.35,10.22-3.53,16.23-3.53,10.71,0,19.27,3.47,25.66,10.41Z"/>
    </g>
  </g>
</svg>